name C:\Users\u0101727\Documents\MyRepositories\upper-imu-dc\Results\main_mocap_tracking\Case_6\kinematics.mot
datacolumns 15
datarows 12
range 3.50000000 3.61000000
endheader 
time	ground_thorax_rot_x	ground_thorax_rot_y	ground_thorax_rot_z	clav_prot	clav_elev	scapula_abduction	scapula_elevation	scapula_upward_rot	scapula_winging	plane_elv	shoulder_elv	axial_rot	elbow_flexion	pro_sup	
          3.50000000	          0.33811301	         -8.17403909	        -11.00163082	        -44.01305570	          8.97996230	          2.39241211	         -1.49941072	         85.25210728	        -11.31678005	         35.22200850	         88.52257763	        -10.38456201	          0.03424538	         34.31447541	
          3.51000000	          0.34369616	         -8.16957383	        -10.99609911	        -44.02713480	          8.99001245	          2.35844012	         -1.49509862	         85.24245495	        -11.33013880	         35.28738971	         88.48619891	        -10.42017888	          0.03314024	         34.31456905	
          3.52000000	          0.34785667	         -8.16433807	        -10.99077106	        -44.03888476	          9.00253179	          2.32535876	         -1.48933973	         85.22949071	        -11.34323254	         35.34515179	         88.44938494	        -10.47983154	          0.03249420	         34.31460971	
          3.53000000	          0.35049832	         -8.15853947	        -10.98571966	        -44.04751680	          9.01697215	          2.29430932	         -1.48249611	         85.21276763	        -11.35549707	         35.39434395	         88.41308095	        -10.56643654	          0.03225979	         34.31460378	
          3.54000000	          0.35154960	         -8.15239415	        -10.98104750	        -44.05270895	          9.03196468	          2.26593025	         -1.47551052	         85.19197679	        -11.36644043	         35.43532465	         88.37775870	        -10.67662395	          0.03250655	         34.31454810	
          3.55000000	          0.35097963	         -8.14612715	        -10.97687841	        -44.05440136	          9.04565327	          2.24079550	         -1.46963296	         85.16716200	        -11.37555502	         35.46918022	         88.34339820	        -10.80128038	          0.03334102	         34.31443705	
          3.56000000	          0.34881607	         -8.13996998	        -10.97334635	        -44.05262717	          9.05612907	          2.21974776	         -1.46608533	         85.13890911	        -11.38228115	         35.49711995	         88.30951226	        -10.92719793	          0.03475316	         34.31427744	
          3.57000000	          0.34515872	         -8.13414645	        -10.97058687	        -44.04750169	          9.06181156	          2.20379927	         -1.46580675	         85.10831014	        -11.38610019	         35.52022446	         88.27529053	        -11.03930182	          0.03649175	         34.31409953	
          3.58000000	          0.34018561	         -8.12884559	        -10.96873232	        -44.03941571	          9.06173089	          2.19351872	         -1.46931603	         85.07668441	        -11.38677977	         35.53959673	         88.23983937	        -11.12349314	          0.03806760	         34.31395471	
          3.59000000	          0.33415096	         -8.12419503	        -10.96790836	        -44.02926855	          9.05575140	          2.18828996	         -1.47663016	         85.04520376	        -11.38464747	         35.55657256	         88.20245803	        -11.16983515	          0.03892771	         34.31389558	
          3.60000000	          0.32737139	         -8.12025647	        -10.96823086	        -44.01843812	          9.04465311	          2.18614268	         -1.48724048	         85.01462986	        -11.38063917	         35.57259664	         88.16289431	        -11.17486668	          0.03870175	         34.31395138	
          3.61000000	          0.32019689	         -8.11705197	        -10.96980522	        -44.00838152	          9.02987230	          2.18454443	         -1.50024582	         84.98537180	        -11.37596721	         35.58872318	         88.12141438	        -11.14162167	          0.03731414	         34.31412075	
